<svg version="1.1" xmlns="http://www.w3.org/2000/svg" xmlns:xlink="http://www.w3.org/1999/xlink" width="24px" height="24px" viewBox="0,0,256,256">
<g fill="#757575" fill-rule="nonzero" stroke="none" stroke-width="1" stroke-linecap="butt" stroke-linejoin="miter" stroke-miterlimit="10" stroke-dasharray="" stroke-dashoffset="0" font-family="none" font-weight="none" font-size="none" text-anchor="none" style="mix-blend-mode: normal">
<g transform="scale(10.66667,10.66667)"><path d="M11.98438,4.00195c-2.87237,0.00424 -5.47501,1.16561 -7.36914,3.04102c-0.01619,0.01261 -0.0359,0.01833 -0.05078,0.0332c-0.01594,0.01602 -0.02182,0.03719 -0.03516,0.05469c-1.85423,1.87913 -3.00442,4.45206 -3.02539,7.29297c-0.00431,0.02639 -0.01562,0.05053 -0.01562,0.07813c0,0.03068 0.01228,0.05678 0.01758,0.08594c0.01536,1.87827 0.52003,3.63972 1.40039,5.16016c0.089,0.155 0.25364,0.25 0.43164,0.25h17.32422c0.178,0 0.34264,-0.095 0.43164,-0.25c0.894,-1.544 1.40625,-3.33509 1.40625,-5.24609c0,-5.795 -4.705,-10.5 -10.5,-10.5c-0.00329,0 -0.00648,0 -0.00977,0c-0.00066,0 -0.00129,0 -0.00195,0c-0.00134,0 -0.00257,-0.00001 -0.00391,0zM11.48828,5.02734v1.47461c0,0.276 0.224,0.5 0.5,0.5c0.276,0 0.5,-0.224 0.5,-0.5v-1.47461c2.24565,0.1147 4.28241,1.00535 5.85156,2.41602l-1.04687,1.04688c-0.195,0.195 -0.195,0.51203 0,0.70703c0.195,0.195 0.51203,0.195 0.70703,0l1.04883,-1.04883c1.41435,1.568 2.30828,3.60684 2.42578,5.85352h-1.48633c-0.276,0 -0.5,0.224 -0.5,0.5c0,0.276 0.224,0.5 0.5,0.5h1.48047c-0.0756,1.43873 -0.45481,2.79666 -1.10156,3.99609h-16.73438c-0.64675,-1.19944 -1.02596,-2.55737 -1.10156,-3.99609h1.45703c0.276,0 0.5,-0.224 0.5,-0.5c0,-0.276 -0.224,-0.5 -0.5,-0.5h-1.46289c0.11722,-2.24127 1.00755,-4.2753 2.41602,-5.8418l1.03711,1.03711c0.195,0.195 0.51203,0.195 0.70703,0c0.195,-0.195 0.195,-0.51203 0,-0.70703l-1.03711,-1.03711c1.56522,-1.41164 3.59801,-2.30579 5.83984,-2.42578zM12,10.25195c-0.203,0 -0.38589,0.12255 -0.46289,0.31055c0,0 -0.74345,1.81827 -1.18945,3.19727c-0.21,0.65 -0.34766,1.21619 -0.34766,1.49219c0,1.104 0.896,2 2,2c1.104,0 2,-0.896 2,-2c0,-0.276 -0.13766,-0.84219 -0.34766,-1.49219c-0.446,-1.379 -1.18945,-3.19727 -1.18945,-3.19727c-0.077,-0.188 -0.25989,-0.31055 -0.46289,-0.31055zM12,12.11523c0.227,0.594 0.49522,1.32113 0.69922,1.95313c0.168,0.518 0.30078,0.96359 0.30078,1.18359c0,0.552 -0.448,1 -1,1c-0.552,0 -1,-0.448 -1,-1c0,-0.22 0.13278,-0.66559 0.30078,-1.18359c0.204,-0.632 0.47222,-1.35912 0.69922,-1.95312z">
</path>
</g>
</g>
</svg>