<svg version="1.1" xmlns="http://www.w3.org/2000/svg" xmlns:xlink="http://www.w3.org/1999/xlink" width="64px" height="64px" viewBox="0,0,256,256">
<g fill="#757575" fill-rule="nonzero" stroke="none" stroke-width="1" stroke-linecap="butt" stroke-linejoin="miter" stroke-miterlimit="10" stroke-dasharray="" stroke-dashoffset="0" font-family="none" font-weight="none" font-size="none" text-anchor="none" style="mix-blend-mode: normal">
<g transform="scale(0.5,0.5)"><path d="M247.46875,18.5c-18.61811,0.02063 -33.70593,15.10845 -33.72656,33.72656c0.00633,5.50363 -3.28142,10.47679 -8.34766,12.62695l-14.29492,6.08594c-10.28221,4.37142 -18.26183,12.85189 -22,23.38086h-36.84375c-27.60122,0.03141 -49.96859,22.39878 -50,50v299.17969c0.03141,27.60122 22.39878,49.96859 50,50h247.48437c27.60122,-0.03141 49.96859,-22.39878 50,-50v-299.17969c-0.02976,-27.60114 -22.39691,-49.96916 -49.99804,-50h-36.8418c-3.73796,-10.5291 -11.71765,-19.00965 -22,-23.38086l-14.29492,-6.08594c-5.06518,-2.15145 -8.35239,-7.1238 -8.34766,-12.62695c-0.02063,-18.61887 -15.10964,-33.707 -33.72851,-33.72656zM247.4707,38.5h17.06055c7.57744,0.00851 13.71805,6.14912 13.72656,13.72656c-0.01289,13.52383 8.06561,25.74349 20.51367,31.0293l14.30079,6.08789c7.381,3.13419 12.17125,10.37957 12.16406,18.39844v14.83398h-138.4668v-14.83398c-0.00686,-8.01934 4.78426,-15.26485 12.16602,-18.39844l14.29883,-6.08594c12.44872,-5.28609 20.52734,-17.50671 20.51367,-31.03125c0.0085,-7.57592 6.14673,-13.7159 13.72265,-13.72656zM132.25781,114.32031h34.51172v18.25586c0,5.52285 4.47715,10 10,10h158.46094c5.52285,0 10,-4.47715 10,-10v-18.25586h34.51172c16.56078,0.01874 29.98126,13.43922 30,30v299.17969c-0.01874,16.56078 -13.43922,29.98126 -30,30h-247.48438c-16.56078,-0.01874 -29.98126,-13.43922 -30,-30v-299.17969c0.01874,-16.56078 13.43922,-29.98126 30,-30zM150.35938,226.37109c-5.52285,0 -10,4.47715 -10,10c0,5.52285 4.47715,10 10,10h87.33203c5.52285,0 10,-4.47715 10,-10c0,-5.52285 -4.47715,-10 -10,-10zM150.35938,305.03906c-5.52285,0 -10,4.47715 -10,10c0,5.52285 4.47715,10 10,10h211.28124c5.52285,0 10,-4.47715 10,-10c0,-5.52285 -4.47715,-10 -10,-10zM150.35938,378.42383c-5.52285,0 -10,4.47715 -10,10c0,5.52285 4.47715,10 10,10h211.28124c5.52285,0 10,-4.47715 10,-10c0,-5.52285 -4.47715,-10 -10,-10z">
</path></g></g></svg>