<svg version="1.1" xmlns="http://www.w3.org/2000/svg" xmlns:xlink="http://www.w3.org/1999/xlink" width="24px" height="24px" viewBox="0,0,256,256">
<g fill="#757575" fill-rule="nonzero" stroke="none" stroke-width="1" stroke-linecap="butt" stroke-linejoin="miter" stroke-miterlimit="10" stroke-dasharray="" stroke-dashoffset="0" font-family="none" font-weight="none" font-size="none" text-anchor="none" style="mix-blend-mode: normal">
<g transform="scale(5.33333,5.33333)">
<path d="M24,6c-2.20914,0 -4,1.79086 -4,4c0,2.20914 1.79086,4 4,4c2.20914,0 4,-1.79086 4,-4c0,-2.20914 -1.79086,-4 -4,-4zM8,8c-2.20914,0 -4,1.79086 -4,4c0,2.20914 1.79086,4 4,4c2.20914,0 4,-1.79086 4,-4c0,-2.20914 -1.79086,-4 -4,-4zM40,8c-2.20914,0 -4,1.79086 -4,4c0,2.20914 1.79086,4 4,4c2.20914,0 4,-1.79086 4,-4c0,-2.20914 -1.79086,-4 -4,-4zM24,17c-3.313,0 -6,2.687 -6,6v3h-2.5c-0.54095,-0.00765 -1.04412,0.27656 -1.31683,0.74381c-0.27271,0.46725 -0.27271,1.04514 0,1.51238c0.27271,0.46725 0.77588,0.75146 1.31683,0.74381h17c0.54095,0.00765 1.04412,-0.27656 1.31683,-0.74381c0.27271,-0.46725 0.27271,-1.04514 0,-1.51238c-0.27271,-0.46725 -0.77588,-0.75146 -1.31683,-0.74381h-2.5v-3c0,-3.313 -2.687,-6 -6,-6zM8,19c-2.21,0 -4,1.79 -4,4v8c0,2.125 1.657,3.86319 3.75,3.99219c0.082,0.005 6.75,0.50781 6.75,0.50781c0,0 0.50467,6.13712 0.51367,6.20313c0.099,0.732 0.72733,1.29688 1.48633,1.29688c0.828,0 1.5,-0.672 1.5,-1.5v-8c0,-0.699 -0.47995,-1.28713 -1.12695,-1.45312c-0.026,-0.007 -4.87305,-1.04102 -4.87305,-1.04102v-8.00586c0,-2.21 -1.79,-4 -4,-4zM40,19c-2.21,0 -4,1.79 -4,4v8.00586c0,0 -4.84705,1.03402 -4.87305,1.04102c-0.647,0.166 -1.12695,0.75413 -1.12695,1.45313v8c0,0.828 0.672,1.5 1.5,1.5c0.759,0 1.38733,-0.56488 1.48633,-1.29687c0.009,-0.066 0.51367,-6.20312 0.51367,-6.20312c0,0 6.668,-0.50281 6.75,-0.50781c2.093,-0.129 3.75,-1.86719 3.75,-3.99219v-8c0,-2.21 -1.79,-4 -4,-4z">
</path></g></g></svg>