<svg version="1.1" xmlns="http://www.w3.org/2000/svg" xmlns:xlink="http://www.w3.org/1999/xlink" width="20px" height="20px" viewBox="0,0,256,256"><g fill="#757575" fill-rule="nonzero" stroke="none" stroke-width="1" stroke-linecap="butt" stroke-linejoin="miter" stroke-miterlimit="10" stroke-dasharray="" stroke-dashoffset="0" font-family="none" font-weight="none" font-size="none" text-anchor="none" style="mix-blend-mode: normal"><g transform="scale(10.66667,10.66667)"><path d="M12,3c-2.19729,0 -4,1.80271 -4,4c0,2.19729 1.80271,4 4,4c2.19729,0 4,-1.80271 4,-4c0,-2.19729 -1.80271,-4 -4,-4zM12,5c1.11641,0 2,0.88359 2,2c0,1.11641 -0.88359,2 -2,2c-1.11641,0 -2,-0.88359 -2,-2c0,-1.11641 0.88359,-2 2,-2zM12,14c-3.141,0 -9,1.545 -9,4.5v2.5h9.29492c-0.189,-0.634 -0.29492,-1.305 -0.29492,-2h-7v-0.5c0,-0.869 3.708,-2.5 7,-2.5c0.222,0 0.44688,0.00944 0.67188,0.02344c0.326,-0.691 0.75825,-1.32219 1.28125,-1.86719c-0.708,-0.104 -1.37612,-0.15625 -1.95312,-0.15625zM18.06445,14c-0.129,0 -0.23695,0.09661 -0.25195,0.22461l-0.11719,1.01172c-0.484,0.168 -0.92078,0.42295 -1.30078,0.75195l-0.9375,-0.40625c-0.118,-0.051 -0.25436,-0.00458 -0.31836,0.10742l-0.9375,1.62109c-0.064,0.112 -0.03464,0.25408 0.06836,0.33008l0.80664,0.59766c-0.047,0.248 -0.07617,0.50172 -0.07617,0.76172c0,0.26 0.02817,0.51277 0.07617,0.75977l-0.80469,0.59961c-0.103,0.077 -0.13336,0.21908 -0.06836,0.33008l0.93555,1.62109c0.064,0.112 0.20231,0.15647 0.32031,0.10547l0.93555,-0.4043c0.379,0.328 0.81678,0.58395 1.30078,0.75195l0.11719,1.01172c0.014,0.129 0.12295,0.22461 0.25195,0.22461h1.87109c0.129,0 0.23695,-0.09661 0.25195,-0.22461l0.11719,-1.01172c0.484,-0.168 0.92078,-0.42295 1.30078,-0.75195l0.9375,0.40625c0.118,0.051 0.25436,0.00358 0.31836,-0.10742l0.9375,-1.62109c0.064,-0.112 0.03464,-0.25408 -0.06836,-0.33008l-0.80664,-0.59961c0.048,-0.247 0.07617,-0.49977 0.07617,-0.75977c0,-0.26 -0.02817,-0.51277 -0.07617,-0.75977l0.80469,-0.59961c0.103,-0.077 0.13336,-0.21908 0.06836,-0.33008l-0.93555,-1.62109c-0.064,-0.112 -0.20231,-0.15647 -0.32031,-0.10547l-0.93555,0.4043c-0.379,-0.328 -0.81678,-0.58395 -1.30078,-0.75195l-0.11719,-1.01172c-0.014,-0.129 -0.12295,-0.22461 -0.25195,-0.22461zM19,17.25c0.966,0 1.75,0.783 1.75,1.75c0,0.966 -0.784,1.75 -1.75,1.75c-0.966,0 -1.75,-0.784 -1.75,-1.75c0,-0.967 0.784,-1.75 1.75,-1.75z">
</path></g></g></svg>