<svg version="1.1" xmlns="http://www.w3.org/2000/svg" xmlns:xlink="http://www.w3.org/1999/xlink" width="24px" height="24px" viewBox="0,0,256,256">
<g fill="#757575" fill-rule="nonzero" stroke="none" stroke-width="1" stroke-linecap="butt" stroke-linejoin="miter" stroke-miterlimit="10" stroke-dasharray="" stroke-dashoffset="0" font-family="none" font-weight="none" font-size="none" text-anchor="none" style="mix-blend-mode: normal"><g transform="scale(3.55556,3.55556)"><path d="M16,20.5c3.584,0 6.5,3.14 6.5,7c0,3.86 -2.916,7 -6.5,7c-3.584,0 -6.5,-3.14 -6.5,-7c0,-3.86 2.916,-7 6.5,-7zM24.737,39.415c-6.124,2.962 -9.001,7.702 -9.562,10.585h-7.59c-2.347,0 -3.746,-2.109 -3.568,-3.966c0.544,-5.24 5.695,-10.034 11.983,-10.034c3.445,0 6.544,1.302 8.737,3.415zM66.983,46.026c0.182,1.906 -1.243,3.974 -3.574,3.974c-1.896,0 -7.584,0 -7.584,0c-0.564,-2.899 -3.452,-7.63 -9.562,-10.585c2.192,-2.113 5.291,-3.415 8.737,-3.415c6.282,0 11.439,4.31 11.983,10.026zM55,20.5c3.584,0 6.5,3.14 6.5,7c0,3.86 -2.916,7 -6.5,7c-3.584,0 -6.5,-3.14 -6.5,-7c0,-3.86 2.916,-7 6.5,-7zM51.422,49.369c1.904,3.637 -1.052,7.631 -4.991,7.631c-5.465,0 -16.396,0 -21.861,0c-3.782,0 -6.969,-3.851 -4.991,-7.63c2.661,-5.085 8.909,-8.37 15.921,-8.37c7.012,0 13.261,3.285 15.922,8.369zM35.5,19c5.238,0 9.5,4.486 9.5,10c0,5.514 -4.262,10 -9.5,10c-5.238,0 -9.5,-4.486 -9.5,-10c0,-5.514 4.262,-10 9.5,-10z">
</path></g></g></svg>